<svg id="Warstwa_1" data-name="Warstwa 1" xmlns="http://www.w3.org/2000/svg" viewBox="0 0 16.22 16.22"><defs><style>.cls-1{fill:#ffe700;}.cls-2{fill:#e63329;}.cls-3{fill:#1d1d1b;}</style></defs><title>ico</title><circle class="cls-1" cx="8.09" cy="8.22" r="4.9"/><path class="cls-2" d="M16.22,7.68s0-.09,0-0.14a0.56,0.56,0,0,0,0-.12,0.19,0.19,0,0,0,0-.06A0.21,0.21,0,0,0,16,7.28h-2.1a5.86,5.86,0,0,0-1.14-2.64l1.38-1.38A0.48,0.48,0,0,0,14.32,3V3a0.35,0.35,0,0,0-.13-0.24l-0.07-.07L14,2.56l-0.1-.1-0.11-.11-0.1-.1-0.1-.1-0.08-.08L13.44,2,13.34,1.9l-0.06,0a0.21,0.21,0,0,0-.17.06L13,2h0L11.57,3.47A5.86,5.86,0,0,0,8.94,2.39v-2A0.48,0.48,0,0,0,8.88.1l0,0A0.35,0.35,0,0,0,8.6,0H7.42L7.36,0A0.2,0.2,0,0,0,7.28.2s0,0.06,0,.09h0V2.39A5.86,5.86,0,0,0,4.63,3.45L3.25,2.07A0.48,0.48,0,0,0,3,1.9H3A0.35,0.35,0,0,0,2.72,2L2.65,2.1l-0.09.09-0.1.1-0.11.11-0.1.1-0.1.1-0.08.08L2,2.78,1.9,2.87a0.19,0.19,0,0,0,0,.06,0.21,0.21,0,0,0,.06.17L2,3.2H2L3.43,4.61A5.86,5.86,0,0,0,2.28,7.27H0.4a0.48,0.48,0,0,0-.3.06l0,0A0.35,0.35,0,0,0,0,7.61s0,0.07,0,.1S0,7.8,0,7.84,0,7.94,0,8s0,0.1,0,.15,0,0.1,0,.15,0,0.1,0,.14S0,8.5,0,8.54s0,0.09,0,.14A0.56,0.56,0,0,0,0,8.8a0.19,0.19,0,0,0,0,.06,0.2,0.2,0,0,0,.16.08h2A5.86,5.86,0,0,0,3.34,11.7L2.07,13a0.48,0.48,0,0,0-.17.26v0a0.35,0.35,0,0,0,.13.24L2.1,13.56l0.09,0.09,0.1,0.1,0.11,0.11L2.5,14l0.1,0.1,0.08,0.08,0.1,0.1,0.09,0.08,0.06,0a0.2,0.2,0,0,0,.17-0.06l0.06-.06h0L4.5,12.89a5.86,5.86,0,0,0,2.77,1.16v1.76a0.48,0.48,0,0,0,.06.3l0,0a0.35,0.35,0,0,0,.26.08H8.8l0.06,0A0.21,0.21,0,0,0,8.94,16s0-.09,0-0.13h0V14a5.86,5.86,0,0,0,2.76-1.17L13,14.15a0.48,0.48,0,0,0,.26.17h0a0.35,0.35,0,0,0,.24-0.13l0.07-.07L13.65,14l0.1-.1,0.11-.11,0.1-.1,0.1-.1,0.08-.08,0.1-.1,0.08-.09a0.19,0.19,0,0,0,0-.06,0.2,0.2,0,0,0-.06-0.17L14.23,13h0l-1.37-1.37a5.86,5.86,0,0,0,1.08-2.74h1.88a0.48,0.48,0,0,0,.3-0.06l0,0a0.35,0.35,0,0,0,.08-0.26s0-.07,0-0.1,0-.08,0-0.13,0-.09,0-0.14,0-.1,0-0.15,0-.1,0-0.15,0-.1,0-0.14S16.22,7.72,16.22,7.68ZM8.09,13.12A4.9,4.9,0,1,1,13,8.22,4.9,4.9,0,0,1,8.09,13.12Z"/><ellipse class="cls-3" cx="6.58" cy="7.09" rx="0.62" ry="0.54"/><ellipse class="cls-3" cx="9.47" cy="7.09" rx="0.62" ry="0.54"/><path class="cls-3" d="M5.64,9.49A2.74,2.74,0,0,0,7.9,10.85a2.79,2.79,0,0,0,2.45-1.36L10,9.22a2.48,2.48,0,0,1-2.05,1.15A2.42,2.42,0,0,1,6,9.2Z"/></svg>